<svg width="465" height="465" viewBox="0 0 465 465" fill="none" xmlns="http://www.w3.org/2000/svg">
<g clip-path="url(#clip0_34_14)">
<path d="M16.0461 316.03C12.0924 302.687 7.04663 289.551 4.48361 275.946C1.76713 261.527 0.183261 246.655 0.273296 231.995C0.471714 199.686 6.72057 168.441 20.0278 138.724C29.825 116.846 42.5942 97.0452 58.3631 78.9992C78.668 55.7622 102.682 37.492 130.294 23.9293C152.042 13.247 174.798 5.54675 199.013 3.02192C212.35 1.63134 225.802 -0.156474 239.139 0.258819C269.561 1.20609 298.851 7.81 326.836 20.2781C346.908 29.2203 365.211 40.8128 382.015 54.7572C403.983 72.9868 421.471 95.006 435.464 119.873C447.638 141.507 455.987 164.528 460.339 188.909C462.195 199.31 463.549 209.911 463.832 220.455C464.203 234.329 464.657 248.445 462.582 262.077C460.103 278.372 454.99 294.266 450.545 310.682C448.942 310.808 447.804 310.616 446.682 310.356C430.279 306.544 413.941 302.417 397.456 299.001C384.062 296.226 370.492 294.302 356.765 291.728C346.769 267.582 337.008 243.708 327.209 219.446C325.442 210.279 323.75 201.493 321.976 192.724C316.859 167.429 309.153 143.1 293.918 121.867C279.756 102.13 261.288 89.2929 236.219 88.1056C208.035 86.7708 186.986 99.6186 170.989 121.802C156.825 141.445 149.099 163.868 144.076 187.287C141.332 200.078 139.19 212.999 136.532 226.106C126.077 249.347 115.867 272.344 105.204 295.249C96.1355 296.617 87.3905 297.554 78.9287 299.64C57.899 304.824 36.9985 310.533 16.0461 316.03Z" fill="#DDDDDD"/>
<path d="M16.0779 316.392C36.9985 310.532 57.8991 304.824 78.9287 299.64C87.3905 297.554 96.1355 296.617 105.164 295.687C103.596 305.41 106.886 311.898 114.812 314.427C121.846 316.672 128.282 312.931 131.819 304.67C134.488 298.437 137.286 292.259 140.348 286.25C141.119 288.377 141.517 290.323 142.025 292.24C149.523 320.5 164.544 342.862 191.405 355.733C188.647 357.556 186.268 359.273 183.431 360.994C170.787 362.116 158.587 363.109 146.428 364.472C144.25 364.716 142.243 366.487 140.157 367.554C142.329 368.706 144.428 370.687 146.683 370.883C168.276 372.761 189.879 375.413 211.51 375.732C239.897 376.151 268.32 374.858 296.713 373.872C304.932 373.587 313.124 371.968 321.275 370.634C322.921 370.365 324.326 368.624 325.842 367.561C324.394 366.686 323.014 365.199 321.488 365.031C308.018 363.553 294.523 362.31 280.849 360.704C278.108 358.922 275.552 357.433 273.218 355.678C302.532 341.476 317.594 317.236 324.319 286.737C328.419 295.739 331.76 304.807 336.013 313.424C339.43 320.347 347.224 322.348 354.012 319.051C360.57 315.867 363.279 308.4 360.496 301.283C359.293 298.204 358.163 295.095 357 292C370.492 294.302 384.062 296.226 397.456 299.001C413.941 302.417 430.279 306.544 446.682 310.356C447.804 310.616 448.942 310.808 450.462 311.059C443.204 333.86 431.41 354.431 416.906 373.415C398.55 397.441 376.274 417.183 350.151 432.515C326.283 446.524 300.838 456.51 273.496 460.828C259.133 463.096 244.484 464.806 229.981 464.686C197.798 464.421 166.855 457.571 137.356 444.274C110.803 432.304 87.2956 416.04 66.9748 395.308C44.7324 372.616 27.632 346.457 16.0779 316.392Z" fill="#C9C7C9"/>
<path d="M191.784 355.628C164.544 342.862 149.523 320.5 142.025 292.24C141.517 290.323 141.119 288.377 140.325 285.804C139.477 280.748 138.697 276.344 138.524 271.916C138.132 261.897 138.117 251.864 137.794 241.842C137.622 236.51 137.126 231.188 136.777 225.861C139.19 212.999 141.332 200.078 144.076 187.287C149.099 163.868 156.825 141.445 170.989 121.802C186.986 99.6186 208.035 86.7708 236.219 88.1056C261.288 89.2929 279.757 102.13 293.918 121.867C309.153 143.1 316.859 167.429 321.977 192.724C323.751 201.493 325.442 210.279 326.879 219.704C326.723 224.266 326.957 228.181 326.976 232.097C327.03 243.247 327.359 254.413 326.867 265.541C326.555 272.593 324.969 279.588 323.954 286.608C317.594 317.236 302.532 341.476 272.848 355.738C264.737 358.031 257.218 360 249.985 361.732C265.778 355.916 277.026 345.464 284.103 330.778C297.05 303.914 295.138 276.955 283.558 250.206C277.679 236.625 269.074 224.995 256.367 217.167C236.47 204.911 214.164 208.003 196.974 225.946C177.049 246.744 169.703 272.313 171.638 300.658C172.716 316.44 177.369 331.341 188.174 343.126C194.437 349.958 202.661 354.992 209.598 360.906C203.391 359.194 197.588 357.411 191.784 355.628ZM221.046 154.699C219.23 160.365 222.529 164.337 225.928 167.913C230.189 172.397 234.434 172.125 238.954 167.763C243.209 163.656 245.33 157.685 243.699 154.407C241.786 150.564 234.775 148.038 228.993 149.725C226.278 150.517 223.93 152.569 221.046 154.699ZM246.219 139.901C247.375 139.976 248.532 140.135 249.686 140.113C254.815 140.018 258.878 135.982 258.866 131.054C258.853 125.9 254.454 121.763 249.113 121.963C244.84 122.123 242.082 124.232 240.666 128.351C238.844 133.65 241.554 136.851 246.219 139.901ZM208.181 137.284C209.233 138.064 210.179 139.111 211.355 139.58C216.32 141.559 221.737 139.431 223.552 134.947C225.532 130.053 223.561 124.567 219.132 122.646C214.304 120.552 208.274 122.639 206.868 127.694C206.122 130.376 207.398 133.621 208.181 137.284Z" fill="#454545"/>
<path d="M324.319 286.737C324.969 279.588 326.555 272.593 326.867 265.541C327.359 254.413 327.03 243.247 326.976 232.097C326.957 228.181 326.723 224.266 326.918 220.093C337.008 243.708 346.769 267.583 356.765 291.728C358.163 295.095 359.293 298.204 360.496 301.283C363.279 308.4 360.57 315.867 354.012 319.051C347.224 322.348 339.43 320.347 336.013 313.424C331.76 304.807 328.419 295.74 324.319 286.737Z" fill="#2A2A2A"/>
<path d="M136.532 226.106C137.126 231.188 137.622 236.51 137.794 241.842C138.117 251.864 138.132 261.897 138.524 271.916C138.697 276.344 139.477 280.748 140.004 285.61C137.286 292.259 134.488 298.437 131.819 304.67C128.282 312.931 121.846 316.672 114.812 314.427C106.886 311.898 103.596 305.41 105.616 295.779C115.867 272.344 126.077 249.347 136.532 226.106Z" fill="#2A2A2A"/>
<path d="M281.035 360.997C294.523 362.31 308.018 363.553 321.488 365.031C323.014 365.199 324.394 366.686 325.842 367.561C324.326 368.624 322.921 370.365 321.275 370.634C313.124 371.968 304.932 373.587 296.713 373.872C268.32 374.858 239.897 376.151 211.51 375.732C189.879 375.413 168.276 372.761 146.683 370.883C144.428 370.687 142.329 368.706 140.157 367.554C142.243 366.487 144.25 364.716 146.428 364.472C158.587 363.109 170.787 362.116 183.474 361.382C184.256 366.252 186.714 368.192 191.127 368.15C198.92 368.074 206.713 368.124 214.506 368.128C217.891 368.129 220.266 366.86 221.188 363.187C229.118 365.374 236.618 364.433 244.105 363.467C246.229 365.266 248.291 367.774 250.517 367.929C257.972 368.449 265.491 367.961 272.975 368.187C278.177 368.344 280.779 366.12 281.035 360.997Z" fill="#C0BEBE"/>
<path d="M220.769 363.203C220.266 366.86 217.891 368.129 214.506 368.128C206.713 368.124 198.92 368.074 191.127 368.15C186.715 368.192 184.256 366.252 183.932 361.378C186.268 359.273 188.647 357.556 191.405 355.733C197.588 357.411 203.391 359.194 209.973 361.05C214.091 361.816 217.43 362.509 220.769 363.203Z" fill="#DB8117"/>
<path d="M280.849 360.704C280.779 366.12 278.177 368.344 272.975 368.187C265.491 367.961 257.972 368.449 250.517 367.929C248.291 367.774 246.229 365.266 244.475 363.422C246.471 362.661 248.085 362.315 249.699 361.968C257.218 360 264.737 358.031 272.627 356.003C275.553 357.433 278.108 358.922 280.849 360.704Z" fill="#DB8117"/>
<path d="M249.985 361.732C248.085 362.315 246.471 362.661 244.488 363.053C236.618 364.433 229.118 365.374 221.188 363.187C217.43 362.509 214.091 361.816 210.377 360.979C202.661 354.992 194.437 349.958 188.174 343.126C177.369 331.341 172.716 316.44 171.638 300.658C169.703 272.313 177.049 246.744 196.974 225.946C214.164 208.003 236.47 204.911 256.367 217.167C269.074 224.995 277.679 236.625 283.558 250.206C295.138 276.955 297.05 303.914 284.103 330.778C277.026 345.464 265.778 355.916 249.985 361.732Z" fill="#E9E9E9"/>
<path d="M221.231 154.375C223.93 152.569 226.278 150.517 228.993 149.725C234.775 148.038 241.786 150.564 243.699 154.407C245.33 157.685 243.209 163.656 238.954 167.763C234.434 172.125 230.189 172.397 225.928 167.913C222.529 164.337 219.23 160.365 221.231 154.375Z" fill="#DA8015"/>
<path d="M245.839 139.763C241.554 136.851 238.844 133.65 240.666 128.351C242.082 124.232 244.84 122.123 249.113 121.963C254.454 121.763 258.853 125.9 258.866 131.054C258.878 135.983 254.815 140.018 249.686 140.113C248.532 140.135 247.375 139.976 245.839 139.763Z" fill="#020202"/>
<path d="M207.971 136.948C207.398 133.621 206.122 130.376 206.868 127.694C208.274 122.639 214.304 120.552 219.132 122.646C223.561 124.567 225.532 130.053 223.552 134.947C221.737 139.431 216.32 141.559 211.355 139.58C210.179 139.111 209.233 138.064 207.971 136.948Z" fill="#010101"/>
</g>
<defs>
<clipPath id="clip0_34_14">
<rect width="465" height="465" fill="white"/>
</clipPath>
</defs>
</svg>
